<svg
    xmlns="http://www.w3.org/2000/svg"
    width="40"
    height="40"
    viewBox="0 0 16 16"
    fill="none"
  >
    <path
      d="M0 3a2 2 0 0 1 2-2h12a2 2 0 0 1 2 2v10a2 2 0 0 1-2 2H2a2 2 0 0 1-2-2V3z"
      fill="#7952B3"
    />
    <path
      d="M5.062 4.25H9c.797 0 1.438.155 1.922.465.484.31.725.75.725 1.32 0 .496-.172.91-.517 1.242-.345.332-.8.557-1.366.676v.093c.646.073 1.134.286 1.465.64.33.353.496.835.496 1.446 0 .563-.18 1.042-.539 1.439-.36.396-.854.657-1.481.782a6.19 6.19 0 0 1-1.224.12H4.812V11.9h3.024c.5 0 .872-.111 1.117-.334.244-.222.366-.533.366-.934 0-.596-.15-.985-.452-1.166-.301-.18-.745-.27-1.331-.27H4.812V7.335h2.13c.569 0 .99-.117 1.263-.352.273-.234.409-.561.409-.981 0-.447-.145-.772-.436-.975-.291-.204-.688-.306-1.191-.306H5.062V4.25z"
      fill="#fff"
    />
  </svg>
